# xmcd
#
# Track frame offsets: 
#        150
#        23047
#        39905
#
# Disc length: 835 seconds
#
# Revision: 5
# Processed by: cddbd v1.5.2PL0 Copyright (c) Steve Scherf et al.
# Submitted via: ExactAudioCopy v0.95b4
#
DISCID=16034103
DTITLE=WANDS - Brand New Love
DYEAR=1998
DGENRE=JPop
TTITLE0=Brand New Love
TTITLE1=Hurts Good
TTITLE2=Brand New Love (Original Karaoke)
EXTD=YEAR: 2009
EXTT0=
EXTT1=
EXTT2=
PLAYORDER=
